<?xml version="1.0" encoding="utf-8"?>
<!-- Generator: Adobe Illustrator 25.0.0, SVG Export Plug-In . SVG Version: 6.00 Build 0)  -->
<svg version="1.0" id="Layer_1" xmlns="http://www.w3.org/2000/svg" xmlns:xlink="http://www.w3.org/1999/xlink" x="0px" y="0px"
	 viewBox="0 0 37.5 37.7" style="enable-background:new 0 0 37.5 37.7;" xml:space="preserve">
<style type="text/css">
	.st0{fill:#FFFFFF;}
	.st1{fill:#8247E5;}
</style>
<circle class="st0" cx="18.8" cy="18.8" r="18.8"/>
<g>
	<path class="st1" d="M25.8,14.2c-0.5-0.3-1.1-0.3-1.7,0l-4,2.4L17.4,18l-3.9,2.4c-0.5,0.3-1.1,0.3-1.7,0l-3.1-1.9
		c-0.5-0.3-0.9-0.9-0.9-1.5v-3.6c0-0.6,0.3-1.1,0.9-1.5l3.1-1.8c0.5-0.3,1.1-0.3,1.7,0l3.1,1.9c0.5,0.3,0.9,0.9,0.9,1.5v2.4l2.7-1.6
		v-2.4c0-0.6-0.3-1.1-0.9-1.5L13.5,7c-0.5-0.3-1.1-0.3-1.7,0L6,10.5c-0.6,0.3-0.9,0.9-0.9,1.4v6.7c0,0.6,0.3,1.1,0.9,1.5l5.8,3.4
		c0.5,0.3,1.1,0.3,1.7,0l3.9-2.3l2.7-1.6l3.9-2.3c0.5-0.3,1.1-0.3,1.7,0l3.1,1.8c0.5,0.3,0.9,0.9,0.9,1.5v3.6c0,0.6-0.3,1.1-0.9,1.5
		l-3,1.8c-0.5,0.3-1.1,0.3-1.7,0L21,25.6c-0.5-0.3-0.9-0.9-0.9-1.5v-2.3l-2.7,1.6v2.4c0,0.6,0.3,1.1,0.9,1.5l5.8,3.4
		c0.5,0.3,1.1,0.3,1.7,0l5.8-3.4c0.5-0.3,0.9-0.9,0.9-1.5V19c0-0.6-0.3-1.1-0.9-1.5L25.8,14.2z"/>
</g>
</svg>
