<?xml version="1.0" encoding="utf-8"?>
<!-- Generator: Adobe Illustrator 23.0.3, SVG Export Plug-In . SVG Version: 6.00 Build 0)  -->
<svg version="1.1" id="Layer_1" xmlns="http://www.w3.org/2000/svg" xmlns:xlink="http://www.w3.org/1999/xlink" x="0px" y="0px"
	 viewBox="0 0 103 103" style="enable-background:new 0 0 103 103;" xml:space="preserve">
<style type="text/css">
	.st0{fill:url(#SVGID_1_);}
	.st1{fill:#FFFFFF;}
</style>
<g>
	<g>
		
			<linearGradient id="SVGID_1_" gradientUnits="userSpaceOnUse" x1="27.6604" y1="103.6608" x2="43.8695" y2="68.9003" gradientTransform="matrix(1 0 0 -1 0 104)">
			<stop  offset="0" style="stop-color:#F7C12C"/>
			<stop  offset="0.3236" style="stop-color:#F7BA30"/>
			<stop  offset="0.7918" style="stop-color:#F8A73C"/>
			<stop  offset="1" style="stop-color:#F89C43"/>
		</linearGradient>
		<path class="st0" d="M99.9,34.5l-7.6-7.5c-2.2,2.2-5,3.4-8.2,3.4s-5.9-1.1-8.2-3.4s-3.4-5-3.4-8.2s1.1-5.9,3.4-8.2l-7.5-7.5
			C67,1.6,65.2,0.9,63,0.9c-2.2,0-4,0.7-5.4,2.2L3.1,57.5C1.6,59,0.9,60.8,0.9,63c0,2.1,0.7,3.9,2.2,5.4l7.5,7.6
			c2.2-2.2,5-3.4,8.2-3.4s5.9,1.1,8.2,3.4s3.4,5,3.4,8.2c0,3.2-1.1,5.9-3.4,8.2l7.6,7.6c1.5,1.5,3.3,2.2,5.4,2.2
			c2.2,0,4-0.7,5.4-2.2l54.5-54.5c1.5-1.5,2.2-3.3,2.2-5.4C102.1,37.7,101.3,35.9,99.9,34.5z"/>
	</g>
</g>
<g>
	<path class="st1" d="M68.6,46.3c-0.6-1-1.3-2.1-2.3-3.3l5.1-4.9l-3-3.1l-5,4.8c-0.5-0.5-1.3-1.3-2.4-2.4l5-4.8l-3-3.1l-5.1,4.9
		c-0.4-0.4-1.1-1.1-1.9-1.9L51.9,28l-3.3,3.2l2.2,2.2c1,1,1.1,2.1,0.4,3.1l-5.8,5.6l-8.1,7.9c-0.8,0.6-1.5,0.5-2.2-0.2l-2.8-2.9
		l-3.7,3.6l4,4.1c0.2,0.3,0.6,0.6,1.1,1.1c0.5,0.5,0.8,0.9,1,1.1l-5.2,5l3,3.1l5.1-4.9c0.5,0.6,1.3,1.4,2.4,2.5l-5.1,4.9l3,3.1
		l5.2-5c1.1,1.1,2.2,1.9,3.2,2.7c1,0.7,2,1.3,3.1,1.8c1.1,0.5,2.1,0.8,3.1,0.8c1,0.1,2-0.1,3.1-0.4s2.1-1,3.2-1.8
		c2-1.6,3.2-3.3,3.5-5.1c0.3-1.8-0.2-3.6-1.3-5.5c3,1,5.6,0.2,7.8-2.4c0.8-0.9,1.3-1.9,1.6-3c0.2-1,0.2-2.1,0-3.2
		C69.6,48.3,69.2,47.3,68.6,46.3z M54.1,60.4c-0.2,0.6-0.5,1.1-1,1.6c-0.4,0.4-0.8,0.6-1.2,0.8C51.5,62.9,51,63,50.6,63
		s-0.9,0-1.4-0.2c-0.5-0.2-1-0.3-1.4-0.5c-0.4-0.2-0.9-0.5-1.4-0.8c-0.5-0.4-0.9-0.7-1.3-1c-0.3-0.3-0.8-0.7-1.2-1.1
		c-0.5-0.4-0.8-0.8-1.1-1c-0.2-0.3-0.6-0.6-0.9-1c-0.4-0.4-0.6-0.7-0.7-0.8l6.8-6.6c0.1,0.1,0.4,0.4,1,0.9c0.5,0.5,1,1,1.3,1.3
		c0.3,0.3,0.8,0.8,1.3,1.5c0.5,0.6,1,1.2,1.3,1.7c0.3,0.5,0.6,1,0.9,1.7c0.3,0.6,0.5,1.2,0.5,1.8C54.4,59.2,54.3,59.8,54.1,60.4z
		 M62.3,49.8c-0.2,0.5-0.5,1-0.9,1.4c-0.4,0.4-0.8,0.6-1.2,0.8s-0.9,0.2-1.3,0.2c-0.4,0-0.9-0.1-1.3-0.2s-0.8-0.3-1.3-0.6
		c-0.5-0.3-0.9-0.6-1.2-0.8c-0.3-0.2-0.7-0.6-1.2-1c-0.5-0.4-0.8-0.8-1-1s-0.5-0.5-0.9-0.9c-0.4-0.4-0.6-0.6-0.7-0.7l6.2-6l0,0
		c0.1,0.1,0.3,0.4,0.8,0.8s0.8,0.8,1.1,1.1s0.7,0.7,1.1,1.2c0.4,0.5,0.8,1,1,1.4c0.3,0.4,0.5,0.9,0.7,1.4c0.2,0.6,0.4,1.1,0.4,1.5
		C62.5,48.8,62.5,49.3,62.3,49.8z"/>
</g>
</svg>
