<?xml version="1.0" encoding="utf-8"?>
<!-- Generator: Adobe Illustrator 25.0.0, SVG Export Plug-In . SVG Version: 6.00 Build 0)  -->
<svg version="1.0" id="Layer_1" xmlns="http://www.w3.org/2000/svg" xmlns:xlink="http://www.w3.org/1999/xlink" x="0px" y="0px"
	 viewBox="0 0 238 40" style="enable-background:new 0 0 238 40;" preserveAspectRatio="none">
<style type="text/css">
	.st0{clip-path:url(#SVGID_2_);}
	.st1{fill:#FFFFFF;}
	.st2{fill:url(#SVGID_3_);}
	.st3{clip-path:url(#SVGID_2_);fill:none;}
</style>
<g>
	<defs>
		<rect id="SVGID_1_" width="238" height="40"/>
	</defs>
	<clipPath id="SVGID_2_">
		<use xlink:href="#SVGID_1_"  style="overflow:visible;"/>
	</clipPath>
	<g class="st0">
		<path class="st1" d="M45.5,30.2l2.8-18.2c0.1-0.4,0.4-0.7,0.9-0.7h7.2c1.5,0,2.6,0.2,3.5,0.6s1.5,1,1.9,1.8
			c0.4,0.8,0.5,1.6,0.3,2.6c-0.1,0.8-0.4,1.4-0.8,2c-0.4,0.6-0.9,1.1-1.5,1.4c-0.6,0.4-1.2,0.6-2,0.8l0,0.2c0.7,0,1.4,0.2,2,0.6
			c0.6,0.4,1,0.9,1.4,1.6c0.3,0.7,0.4,1.5,0.2,2.5c-0.2,1-0.6,2-1.2,2.8c-0.6,0.8-1.5,1.5-2.6,1.9c-1.1,0.5-2.4,0.7-3.8,0.7h-7.7
			C45.7,30.9,45.5,30.6,45.5,30.2L45.5,30.2z M51.5,18.7c-0.1,0.4,0.2,0.7,0.6,0.7h2.3c0.6,0,1.1-0.1,1.6-0.3
			c0.5-0.2,0.9-0.5,1.2-0.9c0.3-0.4,0.5-0.8,0.6-1.3c0.1-0.7-0.1-1.3-0.5-1.7c-0.4-0.4-1.1-0.7-2-0.7h-2.4c-0.4,0-0.8,0.3-0.9,0.7
			L51.5,18.7L51.5,18.7z M50.2,26.7c-0.1,0.4,0.2,0.7,0.6,0.7h2.7c1.2,0,2-0.2,2.6-0.7c0.6-0.4,1-1,1.1-1.8c0.1-0.5,0-1-0.2-1.4
			c-0.2-0.4-0.5-0.7-1-1c-0.4-0.2-1-0.4-1.7-0.4h-2.8c-0.4,0-0.8,0.3-0.9,0.7L50.2,26.7L50.2,26.7z"/>
		<path class="st1" d="M64.5,13.9l0.3-2c0.1-0.4,0.4-0.7,0.9-0.7h14.7c0.4,0,0.7,0.3,0.6,0.7l-0.3,2c-0.1,0.4-0.4,0.7-0.9,0.7h-4.6
			c-0.4,0-0.8,0.3-0.9,0.7l-2.3,14.8c-0.1,0.4-0.4,0.7-0.9,0.7h-2.6c-0.4,0-0.7-0.3-0.6-0.7l2.3-14.8c0.1-0.4-0.2-0.7-0.6-0.7h-4.6
			C64.7,14.6,64.4,14.3,64.5,13.9L64.5,13.9z"/>
		<path class="st1" d="M98.2,18.1h-3.5c-0.2,0-0.3-0.1-0.3-0.3c0-0.4-0.1-0.8-0.2-1.2c-0.2-0.4-0.4-0.8-0.7-1.1
			c-0.3-0.3-0.7-0.5-1.2-0.7c-0.5-0.2-1-0.2-1.5-0.2c-1,0-1.9,0.3-2.8,0.8c-0.8,0.5-1.5,1.2-2.1,2.2c-0.6,1-0.9,2.1-1.2,3.5
			c-0.2,1.4-0.2,2.6,0.1,3.5c0.3,1,0.8,1.7,1.4,2.2c0.7,0.5,1.5,0.7,2.5,0.7c0.6,0,1.1-0.1,1.6-0.2c0.5-0.1,1-0.4,1.4-0.6
			c0.4-0.3,0.8-0.6,1.1-1c0.3-0.3,0.5-0.7,0.6-1.1c0.1-0.2,0.2-0.3,0.4-0.3l3.5,0c0.2,0,0.4,0.2,0.3,0.4c-0.2,0.8-0.6,1.5-1.1,2.2
			c-0.6,0.8-1.3,1.6-2.1,2.2c-0.8,0.7-1.8,1.2-2.8,1.6c-1.1,0.4-2.2,0.6-3.5,0.6c-1.8,0-3.3-0.4-4.5-1.2c-1.3-0.8-2.2-1.9-2.7-3.5
			c-0.6-1.5-0.7-3.3-0.4-5.5c0.3-2.1,1-4,2.1-5.5c1-1.5,2.3-2.7,3.8-3.5c1.5-0.8,3.1-1.2,4.9-1.2c1.1,0,2.2,0.2,3.1,0.5
			c0.9,0.3,1.7,0.8,2.4,1.4c0.7,0.6,1.2,1.4,1.5,2.2c0.3,0.8,0.5,1.6,0.5,2.6C98.6,17.9,98.4,18.1,98.2,18.1L98.2,18.1z"/>
		<path class="st1" d="M99.1,30.2l2.8-18.2c0.1-0.4,0.4-0.7,0.9-0.7h2.7c0.4,0,0.7,0.3,0.6,0.7l-2.3,14.8c-0.1,0.4,0.2,0.7,0.6,0.7
			h7c0.4,0,0.7,0.3,0.6,0.7l-0.3,2c-0.1,0.4-0.4,0.7-0.9,0.7H99.7C99.3,30.9,99,30.6,99.1,30.2L99.1,30.2z"/>
		<path class="st1" d="M132.5,21c-0.3,2.1-1,3.9-1.9,5.4c-1,1.5-2.2,2.7-3.6,3.5c-1.4,0.8-3,1.2-4.7,1.2s-3.1-0.4-4.3-1.2
			c-1.2-0.8-2-2-2.6-3.5c-0.5-1.5-0.6-3.3-0.3-5.4c0.3-2.1,1-3.9,2-5.4s2.2-2.7,3.6-3.5c1.4-0.8,3-1.2,4.7-1.2s3.1,0.4,4.3,1.2
			c1.2,0.8,2,2,2.6,3.5S132.8,19,132.5,21z M130.2,21c0.3-1.7,0.2-3.1-0.2-4.3c-0.4-1.2-1-2.1-1.9-2.7c-0.9-0.6-1.9-0.9-3.1-0.9
			c-1.2,0-2.3,0.3-3.4,0.9c-1.1,0.6-2,1.5-2.7,2.7c-0.7,1.2-1.3,2.6-1.5,4.3c-0.3,1.7-0.2,3.1,0.2,4.3c0.4,1.2,1,2.1,1.9,2.7
			s1.9,0.9,3.1,0.9c1.2,0,2.3-0.3,3.4-0.9s2-1.5,2.7-2.7C129.4,24.2,129.9,22.7,130.2,21z"/>
		<path class="st1" d="M135.5,12.9l0.2-1.4c0-0.2,0.2-0.4,0.4-0.4h13.3c0.2,0,0.3,0.2,0.3,0.4l-0.2,1.4c0,0.2-0.2,0.4-0.4,0.4h-5.1
			c-0.2,0-0.4,0.2-0.4,0.4l-2.6,16.9c0,0.2-0.2,0.4-0.4,0.4H139c-0.2,0-0.3-0.2-0.3-0.4l2.6-16.9c0-0.2-0.1-0.4-0.3-0.4h-5.1
			C135.7,13.3,135.5,13.1,135.5,12.9z"/>
		<path class="st1" d="M152.3,12.9l0.2-1.4c0-0.2,0.2-0.4,0.4-0.4h13.3c0.2,0,0.3,0.2,0.3,0.4l-0.2,1.4c0,0.2-0.2,0.4-0.4,0.4h-5.1
			c-0.2,0-0.4,0.2-0.4,0.4l-2.6,16.9c0,0.2-0.2,0.4-0.4,0.4h-1.6c-0.2,0-0.3-0.2-0.3-0.4l2.6-16.9c0-0.2-0.1-0.4-0.3-0.4h-5.1
			C152.4,13.3,152.2,13.1,152.3,12.9z"/>
		<path class="st1" d="M167,30.5l2.9-19c0-0.2,0.2-0.4,0.4-0.4h11.2c0.2,0,0.3,0.2,0.3,0.4l-0.2,1.4c0,0.2-0.2,0.4-0.4,0.4h-8.8
			c-0.2,0-0.4,0.2-0.4,0.4l-0.9,5.9c0,0.2,0.1,0.4,0.3,0.4h8.2c0.2,0,0.3,0.2,0.3,0.4l-0.2,1.4c0,0.2-0.2,0.4-0.4,0.4h-8.2
			c-0.2,0-0.4,0.2-0.4,0.4l-0.9,6c0,0.2,0.1,0.4,0.3,0.4h8.9c0.2,0,0.3,0.2,0.3,0.4l-0.2,1.4c0,0.2-0.2,0.4-0.4,0.4h-11.3
			C167.2,30.9,167,30.7,167,30.5L167,30.5z"/>
		<path class="st1" d="M196.4,30.3l-2.9-7.2c-0.1-0.2,0-0.4,0.3-0.5c0.1-0.1,0.3-0.1,0.4-0.2c1.1-0.5,1.9-1.2,2.5-2.1
			c0.6-0.9,1-1.9,1.2-3.1c0.2-1.2,0.1-2.2-0.2-3.1c-0.3-0.9-1-1.6-1.9-2.2c-0.9-0.5-2.1-0.8-3.7-0.8h-6.3c-0.2,0-0.4,0.2-0.4,0.4
			l-2.9,19c0,0.2,0.1,0.4,0.3,0.4h1.7c0.2,0,0.4-0.2,0.4-0.4l1.1-7c0-0.2,0.2-0.4,0.4-0.4h3.9c0.1,0,0.2,0,0.3,0
			c0.1,0,0.3,0.1,0.3,0.2l2.8,7.3c0,0.1,0.2,0.2,0.3,0.2h1.9C196.3,30.9,196.5,30.6,196.4,30.3L196.4,30.3z M187.5,13.7
			c0-0.2,0.2-0.4,0.4-0.4h3.8c1.1,0,1.9,0.2,2.5,0.5c0.6,0.3,1,0.8,1.2,1.4c0.2,0.6,0.2,1.3,0.1,2.1c-0.1,0.8-0.4,1.5-0.7,2
			c-0.4,0.6-0.9,1-1.6,1.3c-0.7,0.3-1.6,0.5-2.6,0.5h-3.9c-0.2,0-0.3-0.2-0.3-0.4L187.5,13.7L187.5,13.7z"/>
		<path class="st1" d="M200.5,11.2h1.9c0.1,0,0.2,0.1,0.3,0.2l4,9h0.2l6.7-9c0.1-0.1,0.2-0.2,0.3-0.2h1.9c0.3,0,0.4,0.3,0.2,0.6
			l-8.4,10.9c0,0.1-0.1,0.1-0.1,0.2l-1.2,7.6c0,0.2-0.2,0.4-0.4,0.4h-1.6c-0.2,0-0.3-0.2-0.3-0.4l1.2-7.6c0-0.1,0-0.1,0-0.2
			l-5.1-10.9C200,11.5,200.2,11.2,200.5,11.2L200.5,11.2z"/>
		<g>
			
				<linearGradient id="SVGID_3_" gradientUnits="userSpaceOnUse" x1="20.2201" y1="58.0928" x2="25.8507" y2="46.0081" gradientTransform="matrix(1 0 0 -1 -8.3622 60.4539)">
				<stop  offset="0" style="stop-color:#F7C12C"/>
				<stop  offset="0.32" style="stop-color:#F7BA30"/>
				<stop  offset="0.79" style="stop-color:#F7A63C"/>
				<stop  offset="1" style="stop-color:#F89C43"/>
			</linearGradient>
			<path class="st2" d="M37,14.2l-2.6-2.6c-0.8,0.8-1.7,1.2-2.8,1.2c-1.1,0-2.1-0.4-2.8-1.2c-0.8-0.8-1.2-1.7-1.2-2.8
				c0-1.1,0.4-2.1,1.2-2.8L26,3.3c-0.5-0.5-1.1-0.8-1.9-0.8c-0.7,0-1.4,0.3-1.9,0.8L3.3,22.2c-0.5,0.5-0.8,1.1-0.8,1.9
				c0,0.7,0.3,1.4,0.8,1.9l2.6,2.6c0.8-0.8,1.7-1.2,2.8-1.2c1.1,0,2.1,0.4,2.8,1.2c0.8,0.8,1.2,1.7,1.2,2.8s-0.4,2.1-1.2,2.8
				l2.6,2.6c0.5,0.5,1.1,0.8,1.9,0.8c0.7,0,1.4-0.3,1.9-0.8L37,18c0.5-0.5,0.8-1.1,0.8-1.9C37.7,15.4,37.5,14.7,37,14.2L37,14.2z"/>
		</g>
		<g>
			<path class="st1" d="M24,24.3c0.1-0.6-0.1-1.3-0.5-2c1.1,0.4,2,0.1,2.8-0.9c0.3-0.3,0.5-0.7,0.6-1.1c0.1-0.4,0.1-0.8,0-1.2
				c-0.1-0.4-0.3-0.8-0.5-1.1c-0.2-0.4-0.5-0.8-0.8-1.2l1.8-1.8l-1.1-1.1l-1.8,1.8c-0.2-0.2-0.5-0.5-0.9-0.9l1.8-1.8l-1.1-1.1
				l-1.8,1.8c-0.2-0.2-0.4-0.4-0.7-0.7l-1.5-1.6L19,12.5l0.8,0.8c0.4,0.4,0.4,0.8,0.1,1.1l-5,5c-0.3,0.2-0.6,0.2-0.8-0.1l-1-1
				l-1.3,1.3l1.5,1.5c0.1,0.1,0.2,0.2,0.4,0.4c0.2,0.2,0.3,0.3,0.4,0.4l-1.9,1.8l1.1,1.1l1.8-1.8c0.2,0.2,0.5,0.5,0.9,0.9l-1.8,1.8
				l1.1,1.1l1.9-1.8c0.4,0.4,0.8,0.7,1.2,1c0.4,0.3,0.7,0.5,1.1,0.6c0.4,0.2,0.8,0.3,1.1,0.3c0.4,0,0.7,0,1.1-0.2
				c0.4-0.1,0.8-0.4,1.1-0.7C23.5,25.5,23.9,24.9,24,24.3L24,24.3z M22.3,16c0,0,0.1,0.1,0.3,0.3c0.2,0.2,0.3,0.3,0.4,0.4
				c0.1,0.1,0.2,0.2,0.4,0.4c0.2,0.2,0.3,0.4,0.4,0.5c0.1,0.1,0.2,0.3,0.3,0.5c0.1,0.2,0.1,0.4,0.1,0.6c0,0.2,0,0.3-0.1,0.5
				c-0.1,0.2-0.2,0.4-0.3,0.5c-0.1,0.1-0.3,0.2-0.4,0.3c-0.2,0.1-0.3,0.1-0.5,0.1c-0.2,0-0.3,0-0.5-0.1c-0.1,0-0.3-0.1-0.5-0.2
				c-0.2-0.1-0.3-0.2-0.5-0.3c-0.1-0.1-0.3-0.2-0.4-0.4c-0.2-0.2-0.3-0.3-0.4-0.4c-0.1-0.1-0.2-0.2-0.3-0.3
				c-0.1-0.1-0.2-0.2-0.2-0.3L22.3,16L22.3,16z M20.3,24c-0.2,0.1-0.3,0.1-0.5,0.1c-0.2,0-0.3,0-0.5-0.1c-0.2-0.1-0.3-0.1-0.5-0.2
				c-0.1-0.1-0.3-0.2-0.5-0.3c-0.2-0.1-0.3-0.2-0.5-0.4c-0.1-0.1-0.3-0.2-0.5-0.4c-0.2-0.2-0.3-0.3-0.4-0.4
				c-0.1-0.1-0.2-0.2-0.3-0.4c-0.1-0.1-0.2-0.2-0.3-0.3l2.5-2.4c0,0,0.2,0.2,0.4,0.3c0.2,0.2,0.4,0.3,0.5,0.5
				c0.1,0.1,0.3,0.3,0.5,0.5c0.2,0.2,0.4,0.4,0.5,0.6c0.1,0.2,0.2,0.4,0.3,0.6c0.1,0.2,0.2,0.4,0.2,0.6c0,0.2,0,0.4-0.1,0.6
				c-0.1,0.2-0.2,0.4-0.4,0.6C20.6,23.8,20.5,23.9,20.3,24L20.3,24z"/>
		</g>
		<path class="st1" d="M221.8,14.2c-0.2-0.1-0.4-0.2-0.6-0.2v-0.1c0.2,0,0.4-0.1,0.5-0.2c0.2-0.1,0.3-0.2,0.4-0.4
			c0.1-0.2,0.1-0.4,0.1-0.6c0-0.3-0.1-0.5-0.2-0.8c-0.1-0.2-0.4-0.4-0.6-0.5c-0.3-0.1-0.6-0.2-1.1-0.2h-2.2V17h2.4
			c0.4,0,0.8-0.1,1.1-0.2c0.3-0.1,0.5-0.3,0.7-0.6c0.1-0.2,0.2-0.5,0.2-0.8c0-0.3-0.1-0.5-0.2-0.8C222.2,14.4,222,14.3,221.8,14.2
			L221.8,14.2z M219.2,12.1h1.1c0.3,0,0.5,0.1,0.7,0.2c0.2,0.1,0.2,0.3,0.2,0.6c0,0.2,0,0.3-0.1,0.4c-0.1,0.1-0.2,0.2-0.3,0.3
			c-0.1,0.1-0.3,0.1-0.5,0.1h-1L219.2,12.1L219.2,12.1z M221.2,15.9c-0.2,0.1-0.4,0.2-0.8,0.2h-1.1v-1.7h1.2c0.2,0,0.4,0,0.6,0.1
			c0.2,0.1,0.3,0.2,0.4,0.3c0.1,0.1,0.1,0.3,0.1,0.5C221.4,15.6,221.3,15.7,221.2,15.9L221.2,15.9z"/>
		<path class="st1" d="M224.5,14.5h2.5v-0.9h-2.5v-1.6h2.7v-0.9h-3.8V17h3.8v-0.9h-2.8V14.5z"/>
		<path class="st1" d="M232.7,11.2H228v0.9h1.8V17h1v-4.9h1.8V11.2z"/>
		<path class="st1" d="M236.8,17h1.1l-2.1-5.8h-1.3l-2,5.8h1.1l0.5-1.4h2.2L236.8,17z M234.4,14.7l0.8-2.3h0l0.8,2.3H234.4z"/>
	</g>
	<ellipse class="st3" cx="127.8" cy="29.1" rx="166.6" ry="61.2"/>
	<rect x="-2.4" y="-1.7" class="st3" width="245.6" height="43.3"/>
</g>
</svg>
