<?xml version="1.0" encoding="utf-8"?>
<!-- Generator: Adobe Illustrator 23.0.3, SVG Export Plug-In . SVG Version: 6.00 Build 0)  -->
<svg version="1.1" id="Layer_1" xmlns="http://www.w3.org/2000/svg" xmlns:xlink="http://www.w3.org/1999/xlink" x="0px" y="0px"
	 viewBox="0 0 225 225" style="enable-background:new 0 0 225 225;" xml:space="preserve">
<style type="text/css">
	.st0{fill:#49077F;}
	.st1{fill:url(#SVGID_1_);}
	.st2{fill:#FFFFFF;}
</style>
<title>BtclTokenClean</title>
<circle class="st0" cx="112.5" cy="112.5" r="112.5"/>
<image style="overflow:visible;opacity:6.000000e-02;enable-background:new    ;" width="116" height="115" xlink:href="20650AA584C1D1BB.png"  transform="matrix(1.7 0 0 1.7 13.77 14.62)">
</image>
<linearGradient id="SVGID_1_" gradientUnits="userSpaceOnUse" x1="98.4867" y1="169.0599" x2="121.3052" y2="120.1291" gradientTransform="matrix(1 0 0 -1 -15.5 210.5)">
	<stop  offset="0" style="stop-color:#F7C12C"/>
	<stop  offset="0.32" style="stop-color:#F7BA30"/>
	<stop  offset="0.79" style="stop-color:#F8A73C"/>
	<stop  offset="1" style="stop-color:#F89C43"/>
</linearGradient>
<path class="st1" d="M184.7,89.5L174,78.9c-6.3,6.4-16.6,6.4-22.9,0.1c-3.1-3.1-4.8-7.3-4.8-11.6c-0.1-4.3,1.6-8.5,4.7-11.5
	l-10.5-10.5c-4.3-4.2-11.1-4.2-15.3,0l-76.7,76.6c-4.2,4.3-4.2,11.1,0,15.3l10.5,10.6c6.4-6.3,16.7-6.3,23.1,0
	c6.3,6.4,6.3,16.7,0,23.1l10.6,10.6c4.3,4.2,11.1,4.2,15.3,0l76.7-76.8C188.8,100.5,188.8,93.7,184.7,89.5z"/>
<path class="st2" d="M140.7,106c-1-1.6-2-3.2-3.2-4.6l7.2-6.9l-4.2-4.4l-7,6.8l-3.5-3.5l7-6.8l-4.2-4.4l-7.2,6.9
	c-0.7-0.6-1.5-1.5-2.7-2.7l-5.8-6.1l-4.7,4.5l3,3.1c1.4,1.4,1.6,2.9,0.5,4.4l-8.2,7.9l-11.4,11c-0.8,0.8-2.1,0.7-2.9-0.1
	c-0.1-0.1-0.1-0.1-0.1-0.2l-4-4l-5.2,5l5.6,5.8c0.3,0.3,0.8,0.9,1.5,1.6s1.2,1.2,1.5,1.6l-7.2,7l4.2,4.4l7.2-6.9
	c0.7,0.8,1.9,2,3.4,3.5l-7.2,6.9l4.2,4.4l7.2-7c1.4,1.3,2.9,2.6,4.4,3.7c1.4,1,2.8,1.8,4.4,2.5c1.4,0.6,2.9,1,4.4,1.2
	c1.5,0.1,2.9-0.1,4.3-0.7c1.6-0.6,3.1-1.4,4.4-2.6c2.9-2.3,4.5-4.7,4.9-7.2c0.3-2.7-0.4-5.5-1.9-7.8c4.2,1.4,7.8,0.3,11-3.4
	c1.1-1.2,1.9-2.6,2.2-4.2c0.3-1.5,0.3-3-0.1-4.5C142,108.8,141.4,107.4,140.7,106z M120.3,125.9c-0.3,0.8-0.8,1.6-1.4,2.2
	c-0.5,0.5-1.1,0.9-1.7,1.2c-0.6,0.3-1.2,0.4-1.8,0.4c-0.7,0-1.3-0.1-2-0.3c-0.7-0.2-1.3-0.5-1.9-0.7c-0.7-0.3-1.3-0.7-1.9-1.2
	c-0.6-0.4-1.2-0.9-1.8-1.4c-0.5-0.4-1.1-0.9-1.7-1.6l-1.5-1.5c-0.3-0.3-0.8-0.8-1.3-1.4c-0.5-0.6-0.8-0.9-1-1.1l9.6-9.2l1.3,1.3
	l1.8,1.8c0.5,0.5,1.1,1.2,1.8,2.1c0.7,0.9,1.3,1.6,1.8,2.4c0.5,0.7,0.8,1.5,1.3,2.4c0.4,0.8,0.6,1.6,0.7,2.5
	C120.6,124.4,120.5,125.2,120.3,125.9z M131.7,111c-0.3,0.8-0.7,1.5-1.3,2c-0.5,0.5-1.1,0.9-1.7,1.2c-0.6,0.2-1.2,0.3-1.8,0.3
	c-0.6-0.1-1.2-0.2-1.8-0.3c-0.7-0.2-1.3-0.5-1.9-0.9c-0.7-0.4-1.2-0.8-1.7-1.2c-0.6-0.4-1.1-0.9-1.6-1.4c-0.5-0.4-1-0.9-1.4-1.4
	c-0.2-0.3-0.7-0.7-1.3-1.3s-0.8-0.9-0.9-1l8.7-8.5l0,0c0.2,0.2,0.5,0.5,1.1,1.2s1.2,1.2,1.5,1.5c0.5,0.5,1,1.1,1.5,1.7
	c0.5,0.6,1,1.3,1.5,2c0.4,0.7,0.8,1.3,1.1,2.1c0.3,0.7,0.5,1.4,0.5,2.1C132.1,109.7,132,110.4,131.7,111z"/>
</svg>
