<?xml version="1.0" encoding="utf-8"?>
<!-- Generator: Adobe Illustrator 25.0.0, SVG Export Plug-In . SVG Version: 6.00 Build 0)  -->
<svg version="1.0" id="katman_1" xmlns="http://www.w3.org/2000/svg" xmlns:xlink="http://www.w3.org/1999/xlink" x="0px" y="0px"
	 viewBox="0 0 518 517" style="enable-background:new 0 0 518 517;" xml:space="preserve">
<style type="text/css">
	.st0{fill:#8247E5;stroke:#FFFFFF;stroke-width:16;stroke-miterlimit:10;}
	.st1{clip-path:url(#SVGID_2_);}
	.st2{fill:#FFFFFF;}
</style>
<path class="st0" d="M258.8,4.5L258.8,4.5C399.2,4.5,513,118.3,513,258.7l0,0c0,140.4-113.8,254.1-254.1,254.1l0,0
	C118.5,512.8,4.8,399,4.8,258.7l0,0C4.7,118.3,118.5,4.5,258.8,4.5z"/>
<g>
	<g>
		<g>
			<defs>
				<rect id="SVGID_1_" x="90.5" y="114.4" width="333.1" height="291.9"/>
			</defs>
			<clipPath id="SVGID_2_">
				<use xlink:href="#SVGID_1_"  style="overflow:visible;"/>
			</clipPath>
			<g class="st1">
				<path class="st2" d="M342.1,203.3c-6.1-3.5-13.9-3.5-20.8,0l-48.6,28.8l-33,18.3L192,279.1c-6.1,3.5-13.9,3.5-20.8,0l-37.3-22.7
					c-6.1-3.5-10.4-10.5-10.4-18.3v-43.6c0-7,3.5-13.9,10.4-18.3l37.3-21.8c6.1-3.5,13.9-3.5,20.8,0l37.3,22.7
					c6.1,3.5,10.4,10.5,10.4,18.3v28.8l33-19.2v-29.6c0-7-3.5-13.9-10.4-18.3l-69.4-41c-6.1-3.5-13.9-3.5-20.8,0L101,158
					c-6.9,3.5-10.4,10.5-10.4,17.4v81.9c0,7,3.5,13.9,10.4,18.3l70.3,41c6.1,3.5,13.9,3.5,20.8,0l47.7-27.9l33-19.2l47.7-27.9
					c6.1-3.5,13.9-3.5,20.8,0l37.3,21.8c6.1,3.5,10.4,10.5,10.4,18.3v43.6c0,7-3.5,13.9-10.4,18.3l-36.4,21.8
					c-6.1,3.5-13.9,3.5-20.8,0L284,343.6c-6.1-3.5-10.4-10.5-10.4-18.3v-27.9l-33,19.2v28.8c0,7,3.5,13.9,10.4,18.3l70.3,41
					c6.1,3.5,13.9,3.5,20.8,0l70.3-41c6.1-3.5,10.4-10.5,10.4-18.3v-82.8c0-7-3.5-13.9-10.4-18.3L342.1,203.3z"/>
			</g>
		</g>
	</g>
</g>
</svg>
