<?xml version="1.0" encoding="utf-8"?>
<!-- Generator: Adobe Illustrator 25.0.0, SVG Export Plug-In . SVG Version: 6.00 Build 0)  -->
<svg version="1.1" id="Layer_1" xmlns="http://www.w3.org/2000/svg" xmlns:xlink="http://www.w3.org/1999/xlink" x="0px" y="0px"
	 viewBox="0 0 345.4 300.3" style="enable-background:new 0 0 345.4 300.3;" xml:space="preserve">
<style type="text/css">
	.st0{fill-rule:evenodd;clip-rule:evenodd;fill:#50AF95;}
	.st1{fill-rule:evenodd;clip-rule:evenodd;fill:#FFFFFF;}
</style>
<path class="st0" d="M64.8,4L2.9,134c-0.5,1-0.3,2.2,0.5,2.9l167.1,160.2c1,0.9,2.5,0.9,3.5,0l167.2-160.2c0.8-0.8,1-1.9,0.5-2.9
	L280,4c-0.4-0.9-1.3-1.5-2.3-1.5H67.1C66.1,2.5,65.2,3.1,64.8,4C64.8,4,64.8,4,64.8,4z"/>
<path class="st1" d="M193.9,147.3L193.9,147.3c-1.2,0.1-7.4,0.5-21.2,0.5c-11,0-18.8-0.3-21.6-0.5l0,0c-42.5-1.9-74.2-9.3-74.2-18.1
	s31.7-16.2,74.2-18.2V140c2.8,0.2,10.7,0.7,21.7,0.7c13.2,0,19.8-0.6,21-0.7v-28.9c42.4,1.9,74.1,9.3,74.1,18.1
	S236.3,145.5,193.9,147.3L193.9,147.3L193.9,147.3z M193.9,108.1V82.2h59.2V42.8H91.9v39.5h59.2v25.9c-48.1,2.2-84.3,11.7-84.3,23.2
	s36.2,20.9,84.3,23.2v82.9h42.8v-82.9c48-2.2,84.1-11.7,84.1-23.1S241.9,110.3,193.9,108.1L193.9,108.1L193.9,108.1z M193.9,108.1
	L193.9,108.1z"/>
</svg>
