<?xml version="1.0" standalone="no"?>
<!DOCTYPE svg PUBLIC "-//W3C//DTD SVG 20010904//EN"
 "http://www.w3.org/TR/2001/REC-SVG-20010904/DTD/svg10.dtd">
<svg version="1.0" xmlns="http://www.w3.org/2000/svg"
 width="285.000000pt" height="285.000000pt" viewBox="0 0 285.000000 285.000000"
 preserveAspectRatio="xMidYMid meet">
<metadata>
Created by potrace 1.14, written by Peter Selinger 2001-2017
</metadata>
<g transform="translate(0.000000,285.000000) scale(0.100000,-0.100000)"
fill="#000000" stroke="none">
<path d="M1375 2815 c-22 -13 -51 -30 -65 -38 -14 -7 -113 -64 -220 -127 -107
-62 -350 -203 -540 -313 -190 -110 -347 -202 -350 -204 -3 -3 -5 -323 -5 -713
l0 -709 155 -89 c85 -49 326 -187 535 -307 592 -341 533 -309 560 -297 13 6
234 133 491 283 258 150 523 304 589 342 66 38 122 70 124 72 8 8 3 1417 -5
1425 -10 9 -443 260 -450 260 -2 0 -47 26 -101 58 -90 53 -120 71 -223 130
-19 11 -107 61 -195 112 -218 125 -245 140 -253 140 -4 -1 -25 -12 -47 -25z
m315 -728 c124 -72 241 -139 260 -150 55 -30 175 -100 178 -103 5 -3 5 -815 0
-818 -5 -4 -218 -126 -262 -151 -23 -13 -66 -38 -97 -57 -32 -18 -72 -42 -90
-52 -19 -11 -83 -48 -143 -82 l-109 -63 -116 66 c-64 36 -125 71 -136 77 -11
6 -118 67 -238 136 l-217 124 2 409 3 409 95 56 c52 30 133 77 180 104 47 28
103 60 125 73 22 13 98 57 169 98 111 64 133 74 150 65 12 -6 122 -70 246
-141z"/>
</g>
</svg>
